<?xml version="1.0"?>
<svg xmlns="http://www.w3.org/2000/svg" viewBox="0 0 64 64" width="512" height="512"><g id="Babygirl-Kid-School-Online_learning-Network" data-name="Babygirl-Kid-School-Online learning-Network"><path d="M51,39a1,1,0,0,0-1,1,2,2,0,0,1-4,0,1,1,0,0,0-2,0,4,4,0,0,0,8,0A1,1,0,0,0,51,39Z"/><path d="M32,18a3,3,0,1,0,3,3A3,3,0,0,0,32,18Zm0,4a1,1,0,1,1,1-1A1,1,0,0,1,32,22Z"/><path d="M16,30a5.006,5.006,0,0,0-5,5v4a1,1,0,0,0,1,1h8a1,1,0,0,0,1-1V35A5.006,5.006,0,0,0,16,30Zm3,8H13V35a3,3,0,0,1,6,0Z"/><path d="M61.19,24.02,41,20.2V17.62l2.55,1.27A.934.934,0,0,0,44,19a.981.981,0,0,0,.89-.55.993.993,0,0,0-.44-1.34L33,11.38V8h5a2.006,2.006,0,0,0,2-2V4a2.006,2.006,0,0,0-2-2H32a1,1,0,0,0-1,1v8.38L19.55,17.11a1,1,0,0,0,.9,1.78L23,17.62v2.55L2.81,24.02A1,1,0,0,0,3,26a1.366,1.366,0,0,0,.19-.02L7,25.26V43a1,1,0,0,0,1,1H23v1a1,1,0,0,0,1,1h7a1,1,0,0,0,0-2H25V16.62l7-3.5,7,3.5V26a1,1,0,0,0,2,0V22.23l14,2.65V26a1,1,0,0,0,2,0v-.74l3.81.72A1.366,1.366,0,0,0,61,26a1,1,0,0,0,.19-1.98ZM33,4h5V6H33ZM23,42H9V24.88l14-2.67Z"/><path d="M32,28a3,3,0,0,0-3,3v8a1,1,0,0,0,1,1h4a1,1,0,0,0,1-1V31A3,3,0,0,0,32,28Zm1,10H31V31a1,1,0,0,1,2,0Z"/><path d="M34,58H30.82A3.035,3.035,0,0,0,29,56.18V53a1,1,0,0,0-2,0v3.18A3.035,3.035,0,0,0,25.18,58H10V55.82a2.988,2.988,0,0,0,0-5.64V47a1,1,0,0,0-2,0v3.18A3.035,3.035,0,0,0,6.18,52H3a1,1,0,0,0,0,2H6.18A3.035,3.035,0,0,0,8,55.82V58a2.006,2.006,0,0,0,2,2H25.18a2.988,2.988,0,0,0,5.64,0H34a1,1,0,0,0,0-2ZM9,54a1,1,0,1,1,1-1A1,1,0,0,1,9,54Zm19,6a1,1,0,1,1,1-1A1,1,0,0,1,28,60Z"/><path d="M59.95,42.06a6.9,6.9,0,0,0-2.32-1.55A2.994,2.994,0,0,0,56,35a8,8,0,0,0-16,0,2.994,2.994,0,0,0-1.63,5.51A7.048,7.048,0,0,0,34,47a1,1,0,0,0,1,1h2a6.925,6.925,0,0,0,4.95-2.05c.12-.12.21-.25.32-.38a7.971,7.971,0,0,0,11.46,0,2.833,2.833,0,0,0,.32.37A6.894,6.894,0,0,0,59,48h2a1,1,0,0,0,1-1A6.885,6.885,0,0,0,59.95,42.06ZM40,37a.991.991,0,0,1,.55.17l-.36,1.8A.68.68,0,0,1,40,39a1,1,0,0,1,0-2Zm.53,7.54A4.953,4.953,0,0,1,37,46h-.9a4.96,4.96,0,0,1,4.18-3.93,7.989,7.989,0,0,0,.76,1.86A4.713,4.713,0,0,1,40.53,44.54ZM48,29a6.017,6.017,0,0,1,5.92,5h-2.3l-.73-1.45a1,1,0,0,0-.73-.54,1.032,1.032,0,0,0-.87.28L47.59,34H42.08A6.017,6.017,0,0,1,48,29Zm0,17a6,6,0,0,1-6-5.9l.82-4.1H48a1.033,1.033,0,0,0,.71-.29l1.02-1.02.38.76A.988.988,0,0,0,51,36h2.18L54,40.1A6,6,0,0,1,48,46Zm8-9a1,1,0,0,1,0,2,.68.68,0,0,1-.19-.03l-.36-1.8A.991.991,0,0,1,56,37Zm3,9a4.922,4.922,0,0,1-3.53-1.47,4.057,4.057,0,0,1-.51-.6,7.989,7.989,0,0,0,.76-1.86A4.96,4.96,0,0,1,59.9,46Z"/><path d="M54,48a.984.984,0,0,0-.7.29C52.27,49.3,49.68,50,48,50s-4.27-.7-5.3-1.71A.984.984,0,0,0,42,48a5,5,0,0,0-5,5v8a1,1,0,0,0,1,1H58a1,1,0,0,0,1-1V53A5,5,0,0,0,54,48Zm3,12H39V53a3.006,3.006,0,0,1,2.65-2.98,11.172,11.172,0,0,0,12.7,0A3.006,3.006,0,0,1,57,53Z"/><path d="M43.517,7.517a11.989,11.989,0,0,1,16.966,0A1,1,0,1,0,61.9,6.1,13.988,13.988,0,0,0,42.1,6.1a1,1,0,1,0,1.414,1.414Z"/><path d="M58.36,10.64a1,1,0,0,0,.707-1.707,9.98,9.98,0,0,0-14.134,0,1,1,0,1,0,1.414,1.414,7.981,7.981,0,0,1,11.306,0A1,1,0,0,0,58.36,10.64Z"/><path d="M55.54,13.46a1,1,0,0,0,.7-1.711,6.021,6.021,0,0,0-8.486,0,1,1,0,0,0,1.406,1.422,4.12,4.12,0,0,1,5.674,0A1,1,0,0,0,55.54,13.46Z"/><circle cx="52" cy="16" r="2"/></g></svg>
