<svg height="512" viewBox="0 0 58 59" width="512" xmlns="http://www.w3.org/2000/svg"><g id="038---Push-Swing"><circle id="Oval" cx="44.01" cy="7" r="5"/><path id="Shape" d="m30.21 26.64c.5301221.0652989 1.0671048-.0435016 1.53-.31l17.01-9.67c.9746225-.5679408 1.4481861-1.7182072 1.1559352-2.8077187-.2922509-1.0895114-1.2779146-1.8483542-2.4059352-1.8522813-.944 0 .213-.561-18.25 9.99-.9349131.5382668-1.4191032 1.6155298-1.2009845 2.672042.2181186 1.0565121 1.0893432 1.8539476 2.1609845 1.977958z"/><path id="Shape" d="m1 42h21c.5522847 0 1-.4477153 1-1v-4c-.0045926-.4791713-.3523694-.8859648-.825-.965l5.811-34.87c.0766956-.53746553-.2894592-1.03794704-.8249237-1.12755315-.5354644-.08960612-1.0446116.2643999-1.1470763.79755315l-5.861 35.165h-4.153c0-10.963.032-10.112-.076-10.515-.1694733.8511467-.7013354 1.5862356-1.4567752 2.0134154-.7554398.4271797-1.6594983.5040633-2.4762248.2105846-.049-.017-.943-.387-.991-.406v4.697h2c.5522847 0 1 .4477153 1 1s-.4477153 1-1 1h-7c-.55228475 0-1 .4477153-1 1s.44771525 1 1 1h-5c-.55228475 0-1 .4477153-1 1v4c0 .5522847.44771525 1 1 1z"/><circle id="Oval" cx="14.5" cy="19.5" r="2.5"/><path id="Shape" d="m5.059 21.665c-.1855686.5182542.0826116 1.089031.6 1.277l7.018 2.89c.5206269.1762087 1.0858766-.1007906 1.2656123-.6202104.1797357-.5194197-.0934235-1.0865351-.6116123-1.2697896l-7.044-2.9c-.5102307-.1559535-1.05250314.1191571-1.228.623z"/><path id="Shape" d="m57 55h-10c1.6964731-.0753794 3.0278467-1.4819469 3.01-3.18v-33.6c-.183.143.548-.285-10 5.71v1.57c-9.282 5.276-8.691 5.121-9.8 5.01-.4202935.987556-.1633517 2.133185.638447 2.84665.8017988.713465 1.9695234.8355476 2.901553.30335l6.26-3.47v21.81c-.0015927.7944046.3125934 1.5568761.8733849 2.1195431.5607914.562667 1.3222096.8793972 2.1166151.8804569h-15c0-1.463 1.785-2.748 2.473-3.119.478903-.26461.6562305-.8649696.3979562-1.3473188-.2582744-.4823493-.8562444-.6675751-1.3419562-.4156812-.5470724.3081666-1.0596489.6739096-1.529 1.091v-3.209c0-.5522847-.4477153-1-1-1s-1 .4477153-1 1v3.209c-.4693511-.4170904-.9819276-.7828334-1.529-1.091-.4857118-.2518939-1.0836818-.0666681-1.3419562.4156812-.2582743.4823492-.0809468 1.0827088.3979562 1.3473188.688.371 2.473 1.656 2.473 3.119h-14c0-1.463 1.785-2.748 2.473-3.119.478903-.26461.6562305-.8649696.3979562-1.3473188-.2582744-.4823493-.8562444-.6675751-1.3419562-.4156812-.5470724.3081666-1.0596489.6739096-1.529 1.091v-3.209c0-.5522847-.4477153-1-1-1s-1 .4477153-1 1v3.209c-.46935108-.4170904-.98192759-.7828334-1.529-1.091-.4857118-.2518939-1.08368178-.0666681-1.34195615.4156812-.25827438.4823492-.0809468 1.0827088.39795615 1.3473188.688.371 2.473 1.656 2.473 3.119h-9c-.55228475 0-1 .4477153-1 1v2c0 .5522847.44771525 1 1 1h56c.5522847 0 1-.4477153 1-1v-2c0-.5522847-.4477153-1-1-1zm-13.46 0c-.3474069-.609306-.530073-1.2986118-.53-2v-16c0-.5522847.4477153-1 1-1s1 .4477153 1 1v16c.0043747 1.0606154.8313267 1.9356968 1.89 2z"/></g></svg>